<?xml version="1.0" encoding="UTF-8"?>
<svg viewBox="0 0 800 250" xmlns="http://www.w3.org/2000/svg">
  <!-- Background -->
  <rect width="800" height="250" fill="white" rx="0" ry="0"/>
  
  <!-- Layers Representation in a horizontal flow -->
  <!-- Input Layer -->
  <rect x="20" y="80" width="80" height="120" rx="5" ry="5" fill="#b3e0ff" stroke="#0066cc" stroke-width="2"/>
  <text x="60" y="140" font-family="Arial" font-size="14" text-anchor="middle">Input</text>
  
  <!-- Block 1 -->
  <rect x="130" y="80" width="100" height="120" rx="5" ry="5" fill="#d1e7dd" stroke="#198754" stroke-width="2"/>
  <text x="180" y="110" font-family="Arial" font-size="14" text-anchor="middle" font-weight="bold">Block 1</text>
  <text x="180" y="130" font-family="Arial" font-size="11" text-anchor="middle">Linear</text>
  <text x="180" y="150" font-family="Arial" font-size="11" text-anchor="middle">BatchNorm1d</text>
  <text x="180" y="170" font-family="Arial" font-size="11" text-anchor="middle">LeakyReLU(0.2)</text>
  <text x="180" y="190" font-family="Arial" font-size="11" text-anchor="middle">Dropout(0.1)</text>
  
  <!-- Block 2 -->
  <rect x="260" y="80" width="100" height="120" rx="5" ry="5" fill="#d1e7dd" stroke="#198754" stroke-width="2"/>
  <text x="310" y="110" font-family="Arial" font-size="14" text-anchor="middle" font-weight="bold">Block 2</text>
  <text x="310" y="130" font-family="Arial" font-size="11" text-anchor="middle">Linear</text>
  <text x="310" y="150" font-family="Arial" font-size="11" text-anchor="middle">BatchNorm1d</text>
  <text x="310" y="170" font-family="Arial" font-size="11" text-anchor="middle">LeakyReLU(0.2)</text>
  <text x="310" y="190" font-family="Arial" font-size="11" text-anchor="middle">Dropout(0.1)</text>
  
  <!-- Block 3 -->
  <rect x="390" y="80" width="100" height="120" rx="5" ry="5" fill="#d1e7dd" stroke="#198754" stroke-width="2"/>
  <text x="440" y="110" font-family="Arial" font-size="14" text-anchor="middle" font-weight="bold">Block 3</text>
  <text x="440" y="130" font-family="Arial" font-size="11" text-anchor="middle">Linear</text>
  <text x="440" y="150" font-family="Arial" font-size="11" text-anchor="middle">BatchNorm1d</text>
  <text x="440" y="170" font-family="Arial" font-size="11" text-anchor="middle">LeakyReLU(0.2)</text>
  <text x="440" y="190" font-family="Arial" font-size="11" text-anchor="middle">Dropout(0.1)</text>
  
  <!-- Block 4 -->
  <rect x="520" y="80" width="100" height="120" rx="5" ry="5" fill="#d1e7dd" stroke="#198754" stroke-width="2"/>
  <text x="570" y="110" font-family="Arial" font-size="14" text-anchor="middle" font-weight="bold">Block 4</text>
  <text x="570" y="130" font-family="Arial" font-size="11" text-anchor="middle">Linear</text>
  <text x="570" y="150" font-family="Arial" font-size="11" text-anchor="middle">BatchNorm1d</text>
  <text x="570" y="170" font-family="Arial" font-size="11" text-anchor="middle">LeakyReLU(0.2)</text>
  <text x="570" y="190" font-family="Arial" font-size="11" text-anchor="middle">Dropout(0.05)</text>
  
  <!-- Attention -->
  <rect x="650" y="80" width="80" height="120" rx="5" ry="5" fill="#f8d7da" stroke="#dc3545" stroke-width="2"/>
  <text x="690" y="125" font-family="Arial" font-size="14" text-anchor="middle" font-weight="bold">Attention</text>
  <text x="690" y="150" font-family="Arial" font-size="11" text-anchor="middle">Linear</text>
  <text x="690" y="170" font-family="Arial" font-size="11" text-anchor="middle">Sigmoid</text>
  
  <!-- Output -->
  <rect x="750" y="80" width="30" height="120" rx="5" ry="5" fill="#cfe2ff" stroke="#0d6efd" stroke-width="2"/>
  <text x="765" y="145" font-family="Arial" font-size="12" text-anchor="middle">Out</text>
  
  <!-- Connections -->
  <!-- Main path -->
  <path d="M 100 140 L 130 140" stroke="#555" stroke-width="2" fill="none"/>
  <path d="M 230 140 L 260 140" stroke="#555" stroke-width="2" fill="none"/>
  <path d="M 360 140 L 390 140" stroke="#555" stroke-width="2" fill="none"/>
  <path d="M 490 140 L 520 140" stroke="#555" stroke-width="2" fill="none"/>
  <path d="M 620 140 L 650 140" stroke="#555" stroke-width="2" fill="none"/>
  <path d="M 730 140 L 750 140" stroke="#555" stroke-width="2" fill="none"/>
  
  <!-- Skip Connections -->
  <!-- Skip 1->3 -->
  <path d="M 180 80 C 180 40 440 40 440 80" stroke="#ffc107" stroke-width="3" fill="none"/>
  <text x="310" y="30" font-family="Arial" font-size="10" text-anchor="middle" fill="#555">Skip 1→3</text>
  
  <!-- Skip 2->4 -->
  <path d="M 310 80 C 310 40 570 40 570 80" stroke="#ffc107" stroke-width="3" fill="none"/>
  <text x="440" y="30" font-family="Arial" font-size="10" text-anchor="middle" fill="#555">Skip 2→4</text>
</svg>